<?xml version="1.0" encoding="utf-8"?>
<!-- Generator: Adobe Illustrator 23.0.1, SVG Export Plug-In . SVG Version: 6.00 Build 0)  -->
<svg version="1.1" id="Слой_1" xmlns="http://www.w3.org/2000/svg" xmlns:xlink="http://www.w3.org/1999/xlink" x="0px" y="0px"
	 viewBox="0 0 300 350" enable-background="new 0 0 612 792" xml:space="preserve">
<g id="Слой_x0020_1">
	
		<linearGradient id="SVGID_1_" gradientUnits="userSpaceOnUse" x1="-662.5005" y1="-3820.5708" x2="7937.5005" y2="-3820.5708" gradientTransform="matrix(2.666667e-02 0 0 -2.666667e-02 26 21.12)">
		<stop  offset="0" style="stop-color:#C9C9C9"/>
		<stop  offset="1" style="stop-color:#FEFEFE"/>
	</linearGradient>
	<path fill-rule="evenodd" clip-rule="evenodd" fill="url(#SVGID_1_)" d="M26.5,8.3h193.1c10,0,18.1,11.9,18.1,26.7v176
		c0,14.7-8.1,26.7-18.1,26.7H26.5c-10,0-18.1-11.9-18.1-26.7V35C8.3,20.3,16.4,8.3,26.5,8.3z"/>
	<path fill-rule="evenodd" clip-rule="evenodd" fill="#DB1D00" d="M80.8,163.8c-2.4,7.6-21.9,37.3-31.6,28.6
		C40.9,184.9,72.3,165.6,80.8,163.8z M152.2,143.2c7.7-3.5,46.2-4.4,36.8,10C181.2,165.1,155.6,147.5,152.2,143.2L152.2,143.2z
		 M119.5,113.6c7.2,12.2,16.7,22.4,19.2,26.8c-17.5,2.2-25.7,7.1-33.7,8.6L119.5,113.6L119.5,113.6z M113.2,89.5
		c-5.2-6.2-11-38.8,0.2-39.8C125.6,48.6,117.2,84.4,113.2,89.5z M43.3,185.4c-2.9,8.6,2.9,15.2,10.7,15.2
		c18.3,0,28.9-18.5,37.7-31.7c10.8-15.9,5.8-13.4,17.4-16.5c8.7-2.3,18-4.9,27-6.8c7.8-1.6,7.4-1.8,12.2,2.1
		c9.4,7.6,21.7,16.2,35.5,15.8c26.8-0.8,23.5-27.2-5.7-27.2c-37.2,0-26.6,10.1-47.8-16.6c-10.8-13.6-8.2-14.1-5.9-22.4
		c3.5-12.4,11.5-46.9-5.5-51.8c-14.3-4.1-16.8,7.2-16.8,18c0,8.1,2,16.5,4.3,23.7c3.8,12.2,5.6,8.2,0.8,21.1
		c-5.4,14.4-10.4,26.6-16.6,39.8c-4.7,10-5.9,7.5-16.2,12C64.2,164.6,47.1,174.1,43.3,185.4L43.3,185.4z"/>
</g>
</svg>
